<svg version="1.1"  width="20px" height="20px" x="0" y="0" viewBox="0 0 512 512"  xml:space="preserve" class=""><g transform="matrix(1,0,0,1,90,0)"><path fill="#708299" d="M163.184 390.336 21.09 320.96 163.055 512l21.328-28.703V379.953zM163.055 0 0 292.574h326.113zm0 0" data-original="#708299" class=""></path><path fill="#68788E" d="M326.113 293.008 163.055 0v293.008zm0 0" data-original="#68788e" class=""></path><path fill="#FFFFFF" d="M113.727 162.496h32v32h-32zm0 0" data-original="#ffffff" class=""></path><path fill="#3C3C47" d="m163.055 213.121-.64-.305-162.4 80H.16l162.399 80 .64-.304 21.184-10.367V223.566zm0 0" data-original="#3c3c47" class=""></path><path fill="#FFFFFF" d="M113.727 101.969h32v32h-32zm0 0" data-original="#ffffff" class=""></path><path fill="#68788E" d="M163.184 390.336 163.054 512l142.067-191.168zm0 0" data-original="#68788e" class=""></path><path fill="#31313B" d="m325.809 292.816-162.754-79.695-.64-.305.144 160 .64-.304 162.754-79.696zm0 0" data-original="#31313b" class=""></path></g></svg>