<svg  version="1.1"  width="20" height="20" x="0" y="0" viewBox="0 0 512 512" xml:space="preserve" class=""><g><path fill="#4182C3" d="M280 472h-48c-119.293 0-216-96.706-216-216 0-119.293 96.706-216 216-216h48c119.293 0 216 96.706 216 216s-96.706 216-216 216z" data-original="#4182c3"></path><circle cx="232" cy="256" r="216" fill="#64AFE1" data-original="#64afe1"></circle><circle cx="232" cy="256" r="168" fill="#4182C3" data-original="#4182c3"></circle><path fill="#D7E6F0" d="M310.49 323.322A8.002 8.002 0 0 0 304 320h-93.06l52.683-165.574A8.002 8.002 0 0 0 256 144h-24a8.002 8.002 0 0 0-7.62 5.562l-64 200A8.003 8.003 0 0 0 168 360h128a8.002 8.002 0 0 0 7.59-5.47l8-24a8.007 8.007 0 0 0-1.1-7.208z" data-original="#d7e6f0"></path><path fill="#FFFFFF" d="M167.999 280.002a8.002 8.002 0 0 1-2.528-15.591l96-32a8 8 0 0 1 5.06 15.179l-96 32a8.025 8.025 0 0 1-2.532.412z" data-original="#ffffff"></path><path fill="#FFFFFF" d="M168.002 360.002a8.002 8.002 0 0 1-7.622-10.44l64-200a8.002 8.002 0 0 1 15.24 4.876l-64 200a8.006 8.006 0 0 1-7.618 5.564z" data-original="#ffffff"></path></g></svg>