<svg version="1.1"  width="20" height="20" x="0" y="0" viewBox="0 0 512 512"  xml:space="preserve"><g><circle cx="256" cy="256" r="256" fill="#72F4C3" data-original="#72f4c3"></circle><path fill="#69E8B4" d="M512 256c0 141.382-114.618 256-256 256a260.83 260.83 0 0 1-20.15-.783C367.806 500.936 471.689 390.593 471.689 256S367.806 11.064 235.85.783A260.83 260.83 0 0 1 256 0c141.382 0 256 114.618 256 256z" data-original="#69e8b4"></path><circle cx="256" cy="256" r="223.783" fill="#DCFBED" data-original="#dcfbed"></circle><path fill="#9FF7D3" d="M479.781 256c0 123.589-100.192 223.781-223.781 223.781-7.45 0-14.814-.363-22.071-1.08C347.15 467.618 435.628 372.139 435.628 256S347.15 44.382 233.929 33.298A224.78 224.78 0 0 1 256 32.218C379.589 32.219 479.781 132.411 479.781 256z" data-original="#9ff7d3"></path><circle cx="256" cy="256" r="187.727" fill="#27E19D" data-original="#27e19d"></circle><path fill="#26D192" d="M443.73 256c0 103.513-84.217 187.73-187.73 187.73-9.127 0-18.1-.659-26.878-1.916C319.943 428.73 389.965 350.385 389.965 256S319.943 83.27 229.122 70.186A189.499 189.499 0 0 1 256 68.27c103.513 0 187.73 84.217 187.73 187.73z" data-original="#26d192"></path><path fill="#26D192" d="M361.49 239.187c-20.268-4.899-48.329-8.266-79.015-9.48a7.756 7.756 0 0 0-2.67.369v-15.314h68.638a8.364 8.364 0 0 0 8.361-8.361v-30.895a8.364 8.364 0 0 0-8.361-8.361H163.557a8.364 8.364 0 0 0-8.361 8.361V206.4a8.364 8.364 0 0 0 8.361 8.361h68.638v15.748a7.664 7.664 0 0 0-3.671-.762c-30.455 1.253-58.275 4.632-78.336 9.518-25.018 6.093-36.67 13.952-36.67 24.734 0 11.97 14.513 20.462 45.673 26.724 20.205 4.061 45.545 6.692 73.004 7.661v103.145a8.364 8.364 0 0 0 8.361 8.361h30.887a8.364 8.364 0 0 0 8.361-8.361V298.384c27.459-.968 52.799-3.6 73.004-7.661 31.16-6.262 45.673-14.754 45.673-26.724.001-10.826-11.754-18.711-36.991-24.812zm-194.538 37.289c-25.318-4.608-35.037-9.992-37.525-12.452 1.72-1.681 7.993-6.172 28.646-10.723 18.673-4.114 43.919-6.995 71.088-8.113a7.696 7.696 0 0 0 3.035-.76v38.496c-24.218-.88-46.809-3.093-65.244-6.448zm178.096 0c-18.435 3.356-41.026 5.569-65.244 6.448v-38.147c.652.21 1.34.343 2.058.371 27.394 1.083 52.874 3.954 71.747 8.083 19.202 4.201 26.861 8.685 28.981 10.774-2.455 2.451-12.159 7.851-37.542 12.471z" data-original="#26d192"></path><path fill="#DCFBED" d="M356.804 162.57v30.895a8.36 8.36 0 0 1-8.361 8.361h-63.487a5.15 5.15 0 0 0-5.151 5.151v181.616a8.36 8.36 0 0 1-8.361 8.361h-30.887a8.36 8.36 0 0 1-8.361-8.361V206.977a5.15 5.15 0 0 0-5.151-5.151h-63.487a8.36 8.36 0 0 1-8.361-8.361V162.57a8.36 8.36 0 0 1 8.361-8.361h184.886a8.36 8.36 0 0 1 8.36 8.361z" data-original="#dcfbed"></path><path fill="#72F4C3" d="M279.805 282.924v15.46a692.804 692.804 0 0 1-47.61 0v-15.46c7.784.284 15.744.426 23.805.426 8.06 0 16.02-.142 23.805-.426z" data-original="#72f4c3"></path><path fill="#26D192" d="M384.502 265.699h.008z" data-original="#26d192"></path><path fill="#9FF7D3" d="M357.339 224.878c-20.634-4.605-47.862-7.634-77.531-8.695v15.463c26.311.968 50.788 3.544 69.795 7.376 22.324 4.522 30.875 9.539 33.048 11.785-2.328 2.442-11.929 7.943-37.509 12.651-24.374 4.492-56.042 6.964-89.142 6.964s-64.767-2.472-89.142-6.964c-25.579-4.708-35.181-10.209-37.509-12.651 2.174-2.246 10.724-7.263 33.048-11.785 19.007-3.832 43.484-6.408 69.795-7.376v-15.463c-29.669 1.061-56.897 4.09-77.531 8.695-28.072 6.243-41.145 14.484-41.145 25.93 0 12.033 14.505 20.583 45.658 26.908 25.95 5.264 60.327 8.159 96.827 8.159s70.876-2.895 96.827-8.159c31.153-6.325 45.658-14.876 45.658-26.908-.002-11.445-13.075-19.687-41.147-25.93z" data-original="#9ff7d3"></path></g></svg>