<svg version="1.1" width="15" height="15" x="0" y="0" viewBox="0 0 512 512"  xml:space="preserve" class=""><g><path d="M0 173.34h120v316.72H0zM501.092 305.717c0-11.425-3.791-21.98-10.179-30.478C503.675 265.994 512 250.983 512 234.058c0-28.027-22.803-50.829-50.83-50.829H345.625l16.08-55.543v-26.613c0-49.039-39.897-88.936-88.936-88.936-11.891 0-21.564 9.674-21.564 21.564v59c-8.019 12.834-52.551 62.804-101.205 115.158v262.49l41.518 15.569a218.295 218.295 0 0 0 76.909 13.946h160.019c28.027 0 50.829-22.803 50.829-50.83a50.564 50.564 0 0 0-10.169-30.469c12.76-9.244 21.077-24.265 21.077-41.19 0-11.425-3.791-21.98-10.178-30.478 12.762-9.242 21.087-24.253 21.087-41.18z" fill="#4BC68A" data-original="#000000" class=""></path></g></svg>